Coordinates
version=1
nRows=10
nColumns=40
inDegrees=yes

Units are S.I. units (second, meters, Newtons, ...)
Angles are in degrees.

endheader
time	pelvis_tilt	pelvis_list	pelvis_rotation	pelvis_tx	pelvis_ty	pelvis_tz	hip_flexion_r	hip_adduction_r	hip_rotation_r	knee_angle_r	knee_angle_r_beta	ankle_angle_r	subtalar_angle_r	mtp_angle_r	hip_flexion_l	hip_adduction_l	hip_rotation_l	knee_angle_l	knee_angle_l_beta	ankle_angle_l	subtalar_angle_l	mtp_angle_l	lumbar_extension	lumbar_bending	lumbar_rotation	arm_flex_r	arm_add_r	arm_rot_r	elbow_flex_r	pro_sup_r	wrist_flex_r	wrist_dev_r	arm_flex_l	arm_add_l	arm_rot_l	elbow_flex_l	pro_sup_l	wrist_flex_l	wrist_dev_l
     18.79500000	     -2.67177712	     -2.94696271	     11.06271703	      0.82923819	      0.91853887	      0.51520414	      4.59765374	      3.20480796	    -18.67231287	     21.11584590	     21.11584590	     19.72531997	    -10.69094981	     -0.75671808	     28.33064346	     -7.96725216	      4.70715816	     25.68680763	     25.68680763	      7.20816727	    -12.15596536	      8.51348057	     -9.01385495	      3.95529210	      5.40172262	     43.19794290	    -10.02424222	      7.16944704	     82.52510709	     44.72730835	      0.00000000	      0.00000000	    -15.42862602	     -8.73568560	     -4.60106446	     29.51928940	     45.24764428	      0.00000000	      0.00000000
     18.81435714	     -2.71112240	     -3.02328646	     11.26253325	      0.82922554	      0.91763006	      0.51197444	      4.16910132	      3.11729063	    -18.93383007	     21.08549246	     21.08549246	     19.99391428	    -10.43922970	     -0.91604067	     28.02155648	     -7.90440834	      4.50417390	     25.40499245	     25.40499245	      6.74687316	    -11.05728703	      6.52897901	     -9.07735558	      3.98325813	      5.33676168	     43.97093015	     -9.45020825	      8.62565113	     83.89950626	     44.66883739	      0.00000000	      0.00000000	    -16.22199174	     -9.02971765	     -4.63110556	     30.94877444	     45.28661843	      0.00000000	      0.00000000
     18.83371429	     -2.87233875	     -3.09292062	     11.47928665	      0.82917385	      0.91654540	      0.50840162	      3.91441593	      3.00416914	    -19.02126032	     21.11808927	     21.11808927	     20.23280595	    -10.55776144	     -0.97763019	     27.93123197	     -7.64723560	      4.80077166	     25.46044275	     25.46044275	      6.75502285	    -10.78971323	      6.43515934	     -8.86576756	      3.99682845	      5.74757299	     44.36988458	     -8.98975029	      8.78315778	     84.12105032	     44.65885113	      0.00000000	      0.00000000	    -16.11831188	     -9.23285722	     -4.66637257	     30.99959300	     45.29493841	      0.00000000	      0.00000000
     18.85307143	     -2.96457818	     -3.14074420	     11.68652815	      0.82909779	      0.91549623	      0.50468639	      3.64007533	      2.84331070	    -19.15227281	     21.27717666	     21.27717666	     20.42848881	    -10.66172348	     -1.04380584	     27.85675875	     -7.41208366	      4.98184859	     25.78875340	     25.78875340	      6.86403900	    -10.50678598	      6.17050727	     -8.85519421	      3.99156633	      5.96390318	     45.00383622	     -8.21314269	      9.08905183	     84.60473322	     44.63717613	      0.00000000	      0.00000000	    -15.59222853	     -9.58375892	     -4.72248381	     31.22523315	     45.31435521	      0.00000000	      0.00000000
     18.87242857	     -3.00714997	     -3.24762900	     11.90563277	      0.82910539	      0.91420547	      0.50073928	      3.43091680	      2.66996431	    -19.38837851	     21.70723982	     21.70723982	     20.77294833	    -10.58788274	     -1.19624800	     28.02702420	     -7.37332290	      4.74068689	     26.68261144	     26.68261144	      7.12905376	     -9.68125716	      5.16139600	     -8.99419196	      4.09579362	      5.56465415	     45.57077699	     -7.25350990	     10.07800824	     85.94672587	     44.57381022	      0.00000000	      0.00000000	    -15.56826215	     -9.67001943	     -4.96032667	     31.77238107	     45.36448665	      0.00000000	      0.00000000
     18.89178571	     -3.02984340	     -3.29753856	     12.10257060	      0.82927985	      0.91329036	      0.49652869	      3.05458896	      2.49075112	    -19.51475227	     21.87180810	     21.87180810	     21.00863556	    -10.59535164	     -1.16282483	     28.04459965	     -7.17413406	      4.82304590	     27.44948161	     27.44948161	      7.28242466	     -9.60313588	      4.38091338	     -9.09089793	      4.11061849	      5.70927593	     45.89943397	     -7.05627587	     11.13187916	     86.63914843	     44.54394630	      0.00000000	      0.00000000	    -15.26784228	     -9.81128911	     -5.71973038	     33.01092397	     45.51052610	      0.00000000	      0.00000000
     18.91114286	     -3.07969309	     -3.33243358	     12.29762533	      0.82952411	      0.91254474	      0.49206195	      2.66645680	      2.29042453	    -19.61058304	     21.96801326	     21.96801326	     21.13069526	    -10.66901704	     -1.18469364	     28.10133196	     -6.88709150	      5.07424434	     28.29942887	     28.29942887	      7.59860623	     -9.86294758	      4.11922834	     -9.13048529	      4.13983963	      5.85877091	     46.13314546	     -6.54159525	     11.35531411	     86.80227654	     44.53687887	      0.00000000	      0.00000000	    -14.52459674	     -9.98475843	     -5.86355977	     33.39426456	     45.54743799	      0.00000000	      0.00000000
     18.93050000	     -3.22583615	     -3.29903642	     12.48067935	      0.82985458	      0.91203040	      0.48739608	      2.29976659	      2.00332905	    -19.70626343	     21.94027839	     21.94027839	     21.15326156	    -10.74218710	     -1.15403124	     28.11802642	     -6.51366210	      5.23920009	     28.94789308	     28.94789308	      7.94084919	    -10.06473838	      3.89825293	     -9.06435597	      4.05393515	      5.96078730	     46.19992614	     -6.08813896	     11.57822341	     86.88656954	     44.52881229	      0.00000000	      0.00000000	    -13.67648617	    -10.14914072	     -5.94083741	     33.79344962	     45.57306736	      0.00000000	      0.00000000
     18.94985714	     -3.37539047	     -3.29529886	     12.60725800	      0.83023282	      0.91165556	      0.48264065	      1.93721107	      1.73355643	    -19.78600773	     21.90431889	     21.90431889	     21.11633782	    -10.75599771	     -1.11667555	     28.14282227	     -6.16852208	      5.38684001	     29.62910479	     29.62910479	      8.36777043	    -10.38054791	      3.68348274	     -9.03881581	      4.01485633	      6.04203347	     46.25492643	     -5.70438344	     11.78048557	     86.94479183	     44.52194179	      0.00000000	      0.00000000	    -12.79283073	    -10.30977177	     -6.02698317	     34.24677827	     45.59992312	      0.00000000	      0.00000000
     18.96921429	     -3.46900641	     -3.37895396	     12.72224598	      0.83056363	      0.91144780	      0.47767527	      1.52130934	      1.47279787	    -20.17363953	     21.88974965	     21.88974965	     21.02234553	    -10.20204493	     -1.49378512	     28.29349471	     -5.79166028	      5.90150198	     30.64851285	     30.64851285	      9.31295564	    -11.11833397	      5.47046168	     -9.11243681	      4.07268810	      6.16236482	     46.34575433	     -5.81589366	     12.33184646	     87.49280514	     44.52382794	      0.00000000	      0.00000000	    -12.68507295	    -10.24041855	     -7.99054311	     37.17401509	     45.89583279	      0.00000000	      0.00000000
